<svg version="1.1" xmlns="http://www.w3.org/2000/svg" xmlns:xlink="http://www.w3.org/1999/xlink" viewBox="0 0 255.5 325.6">
	<style type="text/css">
		.st0 { fill: #FEDAC6 }
		.st1 { fill: #F5C4B0 }
		.st2 { fill: #E5B350 }
		.st3 { fill: #C2853B }
		.st4 {
			fill: #FFFFFF;
			stroke: #000000;
			stroke-width: 10;
			stroke-linejoin: round;
			stroke-miterlimit: 10;
		}
	</style>
	<g>
		<path class="st0" d="M221.5,155.2H213v51.1h8.5c14.1,0,25.5-11.4,25.5-25.6S235.6,155.2,221.5,155.2L221.5,155.2z"/>
		<path class="st1" d="M8.5,180.8c0,14.1,11.4,25.6,25.6,25.6l0,0h8.5v-51.1h-8.5c-14.1,0-25.5,11.3-25.6,25.3V180.8z"
			/>
		<path class="st2" d="M221.5,155.2l10.1-51.7c3.3-19.6-10-38.2-29.6-41.5c-2-0.3-4-0.5-6-0.5
			c-5.1-15.2-19.3-25.5-35.4-25.6h-101l-17-25.5l-8.5,8.5c-23.5,23.5-23.5,61.7,0,85.2h153.4L221.5,155.2z"/>
		<path class="st0" d="M221.5,155.2v48.6c0,24-6.1,47.7-17.8,68.7c-23.4,41.9-76.3,57-118.2,33.6
			c-14.1-7.9-25.7-19.5-33.6-33.6c-11.7-21-17.8-44.7-17.8-68.7v-99.7h153.4L221.5,155.2z"/>
		<path class="st1" d="M68.1,104.1H34v99.7c0,24,6.1,47.7,17.8,68.7c8.5,15.3,21.4,27.6,37.1,35.3
			C59.6,223.4,68.1,104.1,68.1,104.1z"/>
		<path class="st3" d="M18.2,47.2c-5,20.4,0.9,42,15.8,56.9h136.3C73.6,104.1,34,70,18.2,47.2z"/>
		<path d="M221.5,214.9H213v-17h8.5c9.4,0,17-7.6,17-17s-7.6-17-17-17H213v-17h8.5c18.8,0,34,15.2,34,34
			S240.3,214.9,221.5,214.9z"/>
		<path d="M42.6,214.9h-8.5C15.3,214.9,0,199.7,0,180.8c0-18.8,15.3-34.1,34.1-34.1h8.5v17h-8.5c-9.4,0-17,7.6-17,17
			s7.6,17,17,17h8.5V214.9z"/>
		<path d="M136.3,231.9h-25.6c-2.7,0-5.2-1.3-6.8-3.4c-1.6-2.2-2.1-4.9-1.4-7.5l17-59.6l16.4,4.7L122,214.9h14.3V231.9
			z"/>
		<path d="M127.8,325.6L127.8,325.6c-34.6,0-66.5-18.8-83.4-49c-12.3-22.3-18.9-47.3-18.9-72.8v-99.7
			c0-4.7,3.8-8.5,8.5-8.5l0,0h153.4c2.9,0,5.5,1.4,7.1,3.8l34.1,51.1c0.9,1.4,1.4,3,1.4,4.7v48.6c0,25.5-6.5,50.5-18.9,72.8
			C194.3,306.9,162.4,325.7,127.8,325.6z M127.8,308.6L127.8,308.6c28.5,0,54.7-15.4,68.5-40.3c10.9-19.7,16.7-41.9,16.7-64.5v-46
			l-30.1-45.2H42.6v91.2c0,22.6,5.8,44.8,16.7,64.5C73.1,293.2,99.3,308.7,127.8,308.6z"/>
		<circle cx="76.7" cy="172.3" r="17"/>
		<circle cx="178.9" cy="172.3" r="17"/>
		<path d="M229.9,165.2l-16.8-2.8l10.1-60.2c2.5-15-7.5-29.1-22.5-31.7h-0.1c-1.5-0.3-3.1-0.4-4.6-0.4l0,0
			c-3.7,0-6.9-2.3-8.1-5.8c-3.9-11.8-15-19.8-27.4-19.8H59.6c-2.9,0-5.5-1.4-7.1-3.8L41.2,23.8L40,25c-20.1,20.2-20.1,52.9,0,73.1
			l-12,12.1C1.2,83.3,1.2,39.8,28,12.9l8.5-8.5c1.8-1.8,4.3-2.7,6.9-2.5c2.5,0.2,4.8,1.6,6.2,3.7l14.5,21.8h96.3
			c17.6,0,33.6,10.1,41.3,25.9c0.5,0.1,1,0.1,1.6,0.2c24.2,4.1,40.6,27,36.6,51.3L229.9,165.2z"/>
		<path id="avatar-mouth-1" style="display: block" d="M120.7,266h-10v-17h10c13.2,0,25.8-5.2,35.1-14.6l12,12.1C155.4,259.1,138.4,266.1,120.7,266z"/>
		<g id="avatar-mouth-2" style="display: none">
			<path class="st4" d="M164.7,246.6H96.8c-1,18.8,13.4,34.8,32.1,35.8s34.8-13.4,35.8-32.1C164.8,249.1,164.8,247.9,164.7,246.6z"/>
			<path d="M129.6,284c-19.7,0-35.9-16.8-35.9-37.4c0-1.7,1.3-3.1,3-3.1h65.7c1.7,0,3,1.4,3,3.1C165.4,267.3,149.3,284,129.6,284z
			M103.7,249.8c0.8,15.4,9.1,24.8,24.6,24.8s23.2-7.2,26.7-22.2l-51.8,0.7L103.7,249.8z"/>
		</g>
	</g>
</svg>
