<?xml version="1.0" encoding="utf-8"?>
<svg version="1.1" class="middleman-logo" xmlns="http://www.w3.org/2000/svg" xmlns:xlink="http://www.w3.org/1999/xlink" x="0px" y="0px" viewBox="0 0 623.6 623.6" style="enable-background:new 0 0 623.6 623.6;" xml:space="preserve">
<style type="text/css">
	.st0{fill:#FBC547;}
	.st1{fill-opacity:0.45;}
	.st2{fill:#FFFFFF;}
	.st3{fill:#8ED6FB;}
	.st4{fill:#1C78C0;}
</style>
<path class="st0" d="M589.6,623.6H34c-18.7,0-34-15.3-34-34V34C0,15.3,15.3,0,34,0h555.6c18.7,0,34,15.3,34,34v555.6
	C623.6,608.3,608.3,623.6,589.6,623.6z"/>
<g>
	<g>
		<polygon class="st1" points="111.2,170.3 311.2,130.3 311.2,160.3 111.2,190.3 		"/>
		<polygon class="st2" points="311.2,130.3 511.2,170.3 511.2,190.3 311.2,160.3 		"/>
		<polygon class="st1" points="111.2,208.3 111.2,392.3 156.2,397.3 156.2,282.3 201.2,365.3 248.2,282.3 248.2,411.3
			301.2,418.3 301.2,182.3 244.2,190.3 201.2,273.3 158.2,203.3 		"/>
		<polygon class="st2" points="511.2,208.3 511.2,392.3 466.2,397.3 466.2,282.3 421.2,365.3 374.2,282.3 374.2,411.3
			321.2,418.3 321.2,182.3 378.2,190.3 421.2,273.3 464.2,203.3 		"/>
		<polygon class="st1" points="111.2,430.3 311.2,470.3 311.2,440.3 111.2,410.3 		"/>
		<polygon class="st2" points="311.2,470.3 511.2,430.3 511.2,410.3 311.2,440.3 		"/>
		<path class="st3" d="M565.4,453.2l-71,40.1v-31.2l44.2-24.3L565.4,453.2z M570.2,448.8v-83.9l-26,15v53.9L570.2,448.8z
			 M417.1,453.2l71,40.1v-31.2l-44.3-24.3L417.1,453.2z M412.2,448.8v-83.9l26,15v53.9L412.2,448.8z M415.3,359.5l72.8-41.1v30.2
			l-46.7,25.6l-0.4,0.2L415.3,359.5z M567.2,359.5l-72.8-41.1v30.2l46.7,25.6l0.4,0.2L567.2,359.5z"/>
		<path class="st4" d="M488.6,455.3l-43.4-24v-47.5l43.4,25.2V455.3z M494.8,455.3l43.4-24v-47.5L494.8,409V455.3z
			 M448.2,378.4l43.6-24.1l43.6,24.1l-43.6,25.3L448.2,378.4z"/>
	</g>
</g>
</svg>
