<svg version="1.1" class="middleman-logo" xmlns="http://www.w3.org/2000/svg" xmlns:xlink="http://www.w3.org/1999/xlink" x="0px" y="0px"
	 viewBox="0 0 517.7 363" style="enable-background:new 0 0 517.7 363;" xml:space="preserve">
<style type="text/css">
	.st0{fill-opacity:0.45;}
	.st1{fill:#FFFFFF;}
	.st2{fill:#8ED6FB;}
	.st3{fill:#1C78C0;}
</style>
<g>
	<g>
		<polygon class="st0" points="58.7,40 258.7,0 258.7,30 58.7,60 		"/>
		<polygon class="st1" points="258.7,0 458.7,40 458.7,60 258.7,30 		"/>
		<polygon class="st0" points="58.7,78 58.7,262 103.7,267 103.7,152 148.7,235 195.7,152 195.7,281 248.7,288
			248.7,52 191.7,60 148.7,143 105.7,73 		"/>
		<polygon class="st1" points="458.7,78 458.7,262 413.7,267 413.7,152 368.7,235 321.7,152 321.7,281 268.7,288
			268.7,52 325.7,60 368.7,143 411.7,73 		"/>
		<polygon class="st0" points="58.7,300 258.7,340 258.7,310 58.7,280 		"/>
		<polygon class="st1" points="258.7,340 458.7,300 458.7,280 258.7,310 		"/>
		<path class="st2" d="M512.8,322.9l-71,40.1v-31.2l44.2-24.3L512.8,322.9z M517.7,318.5v-83.9l-26,15v53.9L517.7,318.5z
			 M364.5,322.9l71,40.1v-31.2l-44.3-24.3L364.5,322.9z M359.7,318.5v-83.9l26,15v53.9L359.7,318.5z M362.7,229.1l72.8-41.1v30.2
			l-46.7,25.6l-0.4,0.2L362.7,229.1z M514.6,229.1L441.8,188v30.2l46.7,25.6l0.4,0.2L514.6,229.1z"/>
		<path class="st3" d="M436.1,325l-43.4-24v-47.5l43.4,25.2V325z M442.3,325l43.4-24v-47.5l-43.4,25.2V325z
			 M395.6,248.1l43.6-24.1l43.6,24.1l-43.6,25.3L395.6,248.1z"/>
	</g>
</g>
</svg>
